<svg width="191" height="34" viewBox="0 0 191 34" fill="none" xmlns="http://www.w3.org/2000/svg">
<path d="M12.4805 2.44629C14.8711 2.44629 16.9684 2.93327 18.7725 3.90723C20.5876 4.88118 21.9932 6.29785 22.9893 8.15723C23.9854 10.0055 24.4834 12.208 24.4834 14.7646C24.4834 17.266 23.9688 19.4795 22.9395 21.4053C21.9212 23.3311 20.499 24.8252 18.6729 25.8877C16.8467 26.9502 14.7715 27.4814 12.4473 27.4814C10.0456 27.4814 7.93717 26.9945 6.12207 26.0205C4.31803 25.0465 2.91797 23.6354 1.92188 21.7871C0.936849 19.9277 0.444336 17.7197 0.444336 15.1631C0.444336 12.6618 0.953451 10.4482 1.97168 8.52246C2.98991 6.59668 4.41211 5.10254 6.23828 4.04004C8.06445 2.97754 10.1452 2.44629 12.4805 2.44629ZM12.3477 3.06055C11.097 3.06055 9.99577 3.56966 9.04395 4.58789C8.10319 5.59505 7.37272 7.00618 6.85254 8.82129C6.34342 10.6253 6.08887 12.695 6.08887 15.0303C6.08887 17.3877 6.37663 19.4629 6.95215 21.2559C7.52767 23.0488 8.30794 24.4323 9.29297 25.4062C10.278 26.3802 11.3737 26.8672 12.5801 26.8672C13.8307 26.8672 14.9264 26.3636 15.8672 25.3564C16.819 24.3382 17.5495 22.9271 18.0586 21.123C18.5788 19.3079 18.8389 17.2327 18.8389 14.8975C18.8389 12.5511 18.5511 10.4814 17.9756 8.68848C17.4001 6.88444 16.6143 5.49544 15.6182 4.52148C14.6331 3.54753 13.543 3.06055 12.3477 3.06055ZM34.3188 23.8457C34.3188 24.4766 34.3852 24.9691 34.518 25.3232C34.6619 25.6774 34.8888 25.9264 35.1987 26.0703C35.5197 26.2142 35.9513 26.2861 36.4936 26.2861V27C34.1473 26.9115 32.631 26.8672 31.9448 26.8672C31.159 26.8672 29.5929 26.9115 27.2466 27V26.2861C27.7889 26.2861 28.215 26.2142 28.5249 26.0703C28.8348 25.9264 29.0617 25.6774 29.2055 25.3232C29.3494 24.9691 29.4214 24.4766 29.4214 23.8457V4.45508C29.4214 3.40365 29.2554 2.64551 28.9233 2.18066C28.6024 1.70475 28.0434 1.4668 27.2466 1.4668V0.75293C27.966 0.819336 28.6688 0.852539 29.355 0.852539C31.3471 0.852539 33.0018 0.692057 34.3188 0.371094V23.8457ZM45.9306 23.8457C45.9306 24.4766 45.997 24.9691 46.1298 25.3232C46.2737 25.6774 46.5006 25.9264 46.8105 26.0703C47.1315 26.2142 47.5631 26.2861 48.1054 26.2861V27C45.7591 26.9115 44.2428 26.8672 43.5566 26.8672C42.7708 26.8672 41.2047 26.9115 38.8584 27V26.2861C39.4007 26.2861 39.8268 26.2142 40.1367 26.0703C40.4466 25.9264 40.6735 25.6774 40.8173 25.3232C40.9612 24.9691 41.0332 24.4766 41.0332 23.8457V4.45508C41.0332 3.40365 40.8671 2.64551 40.5351 2.18066C40.2142 1.70475 39.6552 1.4668 38.8584 1.4668V0.75293C39.5778 0.819336 40.2806 0.852539 40.9668 0.852539C42.9589 0.852539 44.6136 0.692057 45.9306 0.371094V23.8457ZM61.3276 9.41895C62.3901 9.48535 63.4913 9.51855 64.6313 9.51855C65.7713 9.51855 66.6456 9.48535 67.2543 9.41895V10.0996C66.7784 10.2214 66.3468 10.5036 65.9594 10.9463C65.5831 11.389 65.2289 12.0807 64.8969 13.0215L58.8207 30.1211C58.367 31.3053 57.8689 32.1133 57.3266 32.5449C56.6625 33.1094 55.672 33.3916 54.3549 33.3916C53.7683 33.3916 53.1873 33.292 52.6118 33.0928C52.0473 32.9046 51.5769 32.6058 51.2006 32.1963C50.8354 31.7868 50.6528 31.2777 50.6528 30.6689C50.6528 29.9717 50.9018 29.4128 51.3998 28.9922C51.8979 28.5716 52.5564 28.3613 53.3754 28.3613C54.1391 28.3613 54.7534 28.5495 55.2182 28.9258C55.6941 29.3021 55.9321 29.8278 55.9321 30.5029C55.9321 30.9678 55.7771 31.3994 55.4672 31.7979C55.1684 32.2074 54.7534 32.5117 54.2221 32.7109C54.3881 32.7331 54.6482 32.7441 55.0024 32.7441C56.4191 32.7441 57.4539 31.8477 58.1069 30.0547L58.6547 28.4277L51.433 12.042C51.0789 11.2562 50.7247 10.7415 50.3705 10.498C50.0274 10.2546 49.6788 10.1328 49.3246 10.1328V9.41895C50.8188 9.55176 52.3738 9.61816 53.9897 9.61816C55.3289 9.61816 56.906 9.55176 58.7211 9.41895V10.1328C58.2342 10.1328 57.8523 10.1494 57.5756 10.1826C57.2989 10.2158 57.061 10.2988 56.8618 10.4316C56.6736 10.5645 56.5795 10.7803 56.5795 11.0791C56.5795 11.3447 56.657 11.6657 56.812 12.042L60.9789 22.0859L63.3032 15.5449C63.6684 14.4603 63.851 13.5527 63.851 12.8223C63.851 11.959 63.6297 11.306 63.187 10.8633C62.7442 10.4095 62.1245 10.1549 61.3276 10.0996V9.41895ZM89.7309 14.3496C91.7452 14.5046 93.3887 14.8809 94.6615 15.4785C95.9454 16.0651 96.8695 16.79 97.434 17.6533C98.0095 18.5055 98.2973 19.4242 98.2973 20.4092C98.2973 21.8148 97.921 23.0156 97.1684 24.0117C96.4158 24.9967 95.3367 25.7438 93.9311 26.2529C92.5255 26.751 90.8542 27 88.9174 27C88.4304 27 87.5948 26.9834 86.4106 26.9502C85.2374 26.917 84.0531 26.9004 82.8578 26.9004C80.5225 26.9004 78.7794 26.9336 77.6283 27V26.3193C78.3809 26.2861 78.9288 26.1976 79.2719 26.0537C79.615 25.9098 79.8474 25.6442 79.9691 25.2568C80.102 24.8695 80.1684 24.2497 80.1684 23.3975V6.53027C80.1684 5.67806 80.102 5.05827 79.9691 4.6709C79.8474 4.28353 79.615 4.0179 79.2719 3.87402C78.9288 3.73014 78.3809 3.6416 77.6283 3.6084V2.92773C78.7683 2.99414 80.4893 3.02734 82.7914 3.02734C83.699 3.02734 84.7061 3.01628 85.8129 2.99414C86.9197 2.97201 87.6889 2.96094 88.1205 2.96094C89.9467 2.96094 91.4851 3.18783 92.7357 3.6416C93.9975 4.08431 94.9438 4.70964 95.5746 5.51758C96.2055 6.31445 96.5209 7.24414 96.5209 8.30664C96.5209 9.14779 96.2774 9.97233 95.7904 10.7803C95.3035 11.5882 94.5453 12.3076 93.516 12.9385C92.4978 13.5583 91.2361 14.0065 89.7309 14.2832V14.3496ZM87.0414 14.2168C88.5134 14.2168 89.5427 13.7132 90.1293 12.7061C90.727 11.6989 91.0258 10.3542 91.0258 8.67188C91.0258 6.96745 90.7602 5.7002 90.2289 4.87012C89.6977 4.02897 88.851 3.6084 87.6889 3.6084C87.0801 3.6084 86.6264 3.69141 86.3275 3.85742C86.0398 4.01237 85.8406 4.2946 85.7299 4.7041C85.6303 5.10254 85.5805 5.71126 85.5805 6.53027V14.2168H87.0414ZM85.5805 23.3975C85.5805 24.2165 85.6358 24.8197 85.7465 25.207C85.8682 25.5944 86.0896 25.86 86.4106 26.0039C86.7315 26.1478 87.2351 26.2197 87.9213 26.2197C91.0756 26.2197 92.6527 24.2331 92.6527 20.2598C92.6527 18.4779 92.199 17.1221 91.2914 16.1924C90.3949 15.2627 88.9672 14.7979 87.0082 14.7979H85.5805V23.3975ZM110.557 12.6562C110.557 11.7155 110.33 10.974 109.876 10.4316C109.433 9.88932 108.736 9.61816 107.784 9.61816C107.341 9.61816 106.899 9.6901 106.456 9.83398C106.013 9.9668 105.648 10.1715 105.36 10.4482C105.991 10.6585 106.484 10.9906 106.838 11.4443C107.192 11.887 107.369 12.446 107.369 13.1211C107.369 13.5859 107.253 14.0065 107.02 14.3828C106.799 14.748 106.478 15.0413 106.058 15.2627C105.637 15.473 105.155 15.5781 104.613 15.5781C103.883 15.5781 103.296 15.3291 102.853 14.8311C102.422 14.333 102.206 13.7077 102.206 12.9551C102.206 11.7819 102.837 10.8301 104.099 10.0996C105.482 9.33594 107.209 8.9541 109.278 8.9541C111.602 8.9541 113.257 9.46322 114.242 10.4814C114.718 10.9574 115.039 11.5495 115.205 12.2578C115.371 12.9661 115.454 13.9567 115.454 15.2295V24.4766C115.454 25.0299 115.504 25.4229 115.603 25.6553C115.714 25.8766 115.902 25.9873 116.168 25.9873C116.533 25.9873 116.954 25.7936 117.43 25.4062L117.778 25.9873C117.258 26.4189 116.694 26.7344 116.085 26.9336C115.476 27.1328 114.746 27.2324 113.893 27.2324C112.742 27.2324 111.912 26.9779 111.403 26.4688C110.894 25.9596 110.64 25.2956 110.64 24.4766C110.086 25.3952 109.361 26.0869 108.465 26.5518C107.568 27.0055 106.611 27.2324 105.593 27.2324C104.298 27.2324 103.257 26.8949 102.472 26.2197C101.697 25.5335 101.309 24.5817 101.309 23.3643C101.309 22.18 101.697 21.2005 102.472 20.4258C103.246 19.651 104.447 18.9648 106.074 18.3672C106.251 18.3008 106.827 18.085 107.801 17.7197C108.775 17.3434 109.477 16.9616 109.909 16.5742C110.341 16.1868 110.557 15.7607 110.557 15.2959V12.6562ZM110.557 16.6904C110.413 16.9339 110.175 17.1885 109.843 17.4541C109.522 17.7087 109.057 18.0241 108.448 18.4004C107.729 18.8984 107.164 19.4629 106.755 20.0938C106.345 20.7135 106.141 21.4883 106.141 22.418C106.141 23.3034 106.334 23.9674 106.722 24.4102C107.109 24.8418 107.618 25.0576 108.249 25.0576C109.145 25.0576 109.915 24.5928 110.557 23.6631V16.6904ZM126.269 12.1914C126.734 11.14 127.42 10.3376 128.327 9.78418C129.235 9.23079 130.286 8.9541 131.482 8.9541C132.677 8.9541 133.734 9.2806 134.653 9.93359C135.582 10.5866 136.307 11.5716 136.827 12.8887C137.359 14.2057 137.624 15.8271 137.624 17.7529C137.624 20.0107 137.276 21.8646 136.578 23.3145C135.892 24.7643 134.963 25.8213 133.789 26.4854C132.627 27.1494 131.31 27.4814 129.838 27.4814C128.267 27.4814 126.999 27.083 126.036 26.2861C125.915 26.2751 125.738 26.2695 125.505 26.2695C124.764 26.2695 124.039 26.3913 123.33 26.6348C122.633 26.8672 122.074 27.1715 121.654 27.5479L121.139 27.2324C121.294 26.6569 121.371 26.026 121.371 25.3398V4.48828C121.371 3.43685 121.205 2.67871 120.873 2.21387C120.552 1.73796 119.994 1.5 119.197 1.5V0.786133C119.905 0.852539 120.608 0.885742 121.305 0.885742C123.297 0.885742 124.952 0.72526 126.269 0.404297V12.1914ZM126.269 25.8545C127.01 26.4632 127.852 26.7676 128.792 26.7676C131.26 26.7676 132.494 23.9232 132.494 18.2344C132.494 15.4453 132.234 13.4476 131.714 12.2412C131.205 11.0238 130.458 10.415 129.473 10.415C128.731 10.415 128.056 10.6807 127.448 11.2119C126.85 11.7432 126.457 12.4626 126.269 13.3701V25.8545ZM145.152 0.65332C146.093 0.65332 146.84 0.885742 147.393 1.35059C147.958 1.81543 148.24 2.45182 148.24 3.25977C148.24 4.07878 147.958 4.7207 147.393 5.18555C146.84 5.65039 146.093 5.88281 145.152 5.88281C144.189 5.88281 143.431 5.65039 142.878 5.18555C142.324 4.7207 142.048 4.07878 142.048 3.25977C142.048 2.45182 142.324 1.81543 142.878 1.35059C143.431 0.885742 144.189 0.65332 145.152 0.65332ZM147.808 23.8457C147.808 24.4766 147.88 24.9691 148.024 25.3232C148.168 25.6774 148.395 25.9264 148.705 26.0703C149.015 26.2142 149.441 26.2861 149.983 26.2861V27C147.725 26.9115 146.22 26.8672 145.468 26.8672C144.748 26.8672 143.171 26.9115 140.736 27V26.2861C141.278 26.2861 141.705 26.2142 142.014 26.0703C142.335 25.9264 142.562 25.6774 142.695 25.3232C142.839 24.9691 142.911 24.4766 142.911 23.8457V13.1211C142.911 12.0697 142.75 11.3115 142.43 10.8467C142.109 10.3708 141.544 10.1328 140.736 10.1328V9.41895C141.456 9.48535 142.158 9.51855 142.845 9.51855C144.848 9.51855 146.502 9.36361 147.808 9.05371V23.8457ZM161.894 12.6562C161.894 11.7155 161.667 10.974 161.213 10.4316C160.771 9.88932 160.073 9.61816 159.121 9.61816C158.679 9.61816 158.236 9.6901 157.793 9.83398C157.351 9.9668 156.985 10.1715 156.698 10.4482C157.328 10.6585 157.821 10.9906 158.175 11.4443C158.529 11.887 158.706 12.446 158.706 13.1211C158.706 13.5859 158.59 14.0065 158.358 14.3828C158.136 14.748 157.815 15.0413 157.395 15.2627C156.974 15.473 156.493 15.5781 155.951 15.5781C155.22 15.5781 154.633 15.3291 154.191 14.8311C153.759 14.333 153.543 13.7077 153.543 12.9551C153.543 11.7819 154.174 10.8301 155.436 10.0996C156.819 9.33594 158.546 8.9541 160.616 8.9541C162.94 8.9541 164.594 9.46322 165.579 10.4814C166.055 10.9574 166.376 11.5495 166.542 12.2578C166.708 12.9661 166.791 13.9567 166.791 15.2295V24.4766C166.791 25.0299 166.841 25.4229 166.941 25.6553C167.051 25.8766 167.24 25.9873 167.505 25.9873C167.87 25.9873 168.291 25.7936 168.767 25.4062L169.116 25.9873C168.595 26.4189 168.031 26.7344 167.422 26.9336C166.813 27.1328 166.083 27.2324 165.231 27.2324C164.08 27.2324 163.25 26.9779 162.741 26.4688C162.231 25.9596 161.977 25.2956 161.977 24.4766C161.423 25.3952 160.699 26.0869 159.802 26.5518C158.906 27.0055 157.948 27.2324 156.93 27.2324C155.635 27.2324 154.595 26.8949 153.809 26.2197C153.034 25.5335 152.647 24.5817 152.647 23.3643C152.647 22.18 153.034 21.2005 153.809 20.4258C154.584 19.651 155.785 18.9648 157.411 18.3672C157.589 18.3008 158.164 18.085 159.138 17.7197C160.112 17.3434 160.815 16.9616 161.246 16.5742C161.678 16.1868 161.894 15.7607 161.894 15.2959V12.6562ZM161.894 16.6904C161.75 16.9339 161.512 17.1885 161.18 17.4541C160.859 17.7087 160.394 18.0241 159.785 18.4004C159.066 18.8984 158.502 19.4629 158.092 20.0938C157.683 20.7135 157.478 21.4883 157.478 22.418C157.478 23.3034 157.672 23.9674 158.059 24.4102C158.446 24.8418 158.955 25.0576 159.586 25.0576C160.483 25.0576 161.252 24.5928 161.894 23.6631V16.6904ZM188.414 24.5098C188.757 25.0521 189.045 25.4561 189.277 25.7217C189.51 25.9762 189.808 26.1644 190.174 26.2861V27C188.359 26.9115 187.169 26.8672 186.604 26.8672C185.852 26.8672 184.391 26.9115 182.221 27V26.2861C182.897 26.2861 183.234 26.0703 183.234 25.6387C183.234 25.4948 183.179 25.3232 183.068 25.124L179.698 19.0479C179.477 18.6715 179.239 18.4115 178.984 18.2676C178.741 18.1126 178.425 18.0241 178.038 18.002V23.8457C178.038 24.4766 178.104 24.9691 178.237 25.3232C178.37 25.6774 178.58 25.9264 178.868 26.0703C179.167 26.2142 179.571 26.2861 180.08 26.2861V27C177.822 26.9115 176.35 26.8672 175.664 26.8672C174.878 26.8672 173.312 26.9115 170.966 27V26.2861C171.508 26.2861 171.934 26.2142 172.244 26.0703C172.554 25.9264 172.781 25.6774 172.925 25.3232C173.069 24.9691 173.14 24.4766 173.14 23.8457V4.45508C173.14 3.40365 172.974 2.64551 172.642 2.18066C172.321 1.70475 171.763 1.4668 170.966 1.4668V0.75293C171.685 0.819336 172.388 0.852539 173.074 0.852539C175.066 0.852539 176.721 0.692057 178.038 0.371094V17.3213C178.492 17.277 178.879 17.194 179.2 17.0723C179.521 16.9395 179.814 16.7347 180.08 16.458L182.653 13.9512C183.417 13.1875 183.799 12.4958 183.799 11.876C183.799 11.3558 183.55 10.9408 183.052 10.6309C182.565 10.3099 181.934 10.1328 181.159 10.0996V9.41895C182.421 9.48535 183.749 9.51855 185.143 9.51855C187.003 9.51855 188.331 9.48535 189.128 9.41895V10.0996C187.777 10.3984 186.361 11.2728 184.878 12.7227L182.703 14.9805L188.414 24.5098Z" fill="white"/>
</svg>
