<?xml version="1.0" encoding="utf-8"?>
<!-- Generator: Adobe Illustrator 21.1.0, SVG Export Plug-In . SVG Version: 6.00 Build 0)  -->
<svg version="1.1" id="Layer_1" xmlns="http://www.w3.org/2000/svg" xmlns:xlink="http://www.w3.org/1999/xlink" x="0px" y="0px"
	 viewBox="0 0 193 75" style="enable-background:new 0 0 193 75;" xml:space="preserve">
<style type="text/css">
	.st0{fill:#FFFFFF;}
</style>
<g>
	<path class="st0" d="M4.1,32.1c1.4-2.8,3.3-5,5.8-6.9c2.5-1.8,5.3-2.7,8.4-2.7c2,0,3.8,0.3,5.2,1c1.5,0.7,2.6,1.7,3.3,3
		c0.8,1.3,1.2,2.8,1.2,4.7c0,2.7-0.7,5.4-2.1,8.2c-1.4,2.8-3.3,5-5.8,6.8c-2.5,1.8-5.3,2.7-8.4,2.7c-2,0-3.8-0.3-5.2-1
		c-1.5-0.7-2.6-1.7-3.3-2.9C2.4,43.6,2,42.1,2,40.3C2,37.6,2.7,34.8,4.1,32.1z M13.2,25.7c-1.5,1.7-2.7,3.9-3.7,6.7
		c-0.9,2.7-1.4,5.5-1.4,8.3c0,1.5,0.2,2.9,0.5,4c0.3,1.1,0.8,2,1.4,2.6c0.6,0.6,1.3,0.9,2,0.9c1.6,0,3.2-0.9,4.7-2.6
		c1.5-1.7,2.7-3.9,3.7-6.7c0.9-2.7,1.4-5.5,1.4-8.3c0-1.5-0.2-2.9-0.5-4c-0.3-1.1-0.8-2-1.4-2.6c-0.6-0.6-1.3-0.9-2-0.9
		C16.3,23.2,14.7,24,13.2,25.7z"/>
	<path class="st0" d="M33.5,46.2c0,0.6,0.3,0.9,0.8,0.9c0.7,0,1.5-0.9,2.2-2.8l0.6-1.7h0.7l-0.9,2.6c-0.5,1.3-1.1,2.3-2,2.8
		c-0.9,0.6-1.8,0.8-2.8,0.8c-1.1,0-1.9-0.3-2.4-0.8c-0.5-0.6-0.8-1.3-0.8-2.4c0-0.7,0.1-1.6,0.4-2.5l5.6-18.7c0.1-0.4,0.2-0.8,0.2-1
		c0-0.5-0.2-0.8-0.6-1c-0.4-0.2-1-0.3-1.9-0.3l0.3-0.8c1.6,0,3.1-0.1,4.4-0.4c1.3-0.2,2.6-0.6,3.9-1.1l-7.5,25.4
		C33.5,45.7,33.5,46,33.5,46.2z"/>
	<path class="st0" d="M44.4,46.2c0,0.6,0.3,0.9,0.8,0.9c0.7,0,1.5-0.9,2.2-2.8l0.6-1.7h0.7l-0.9,2.6c-0.5,1.3-1.1,2.3-2,2.8
		C45,48.6,44,48.9,43,48.9c-1.1,0-1.9-0.3-2.4-0.8s-0.8-1.3-0.8-2.4c0-0.7,0.1-1.6,0.4-2.5l5.6-18.7c0.1-0.4,0.2-0.8,0.2-1
		c0-0.5-0.2-0.8-0.6-1c-0.4-0.2-1-0.3-1.9-0.3l0.3-0.8c1.6,0,3.1-0.1,4.4-0.4c1.3-0.2,2.6-0.6,3.9-1.1l-7.5,25.4
		C44.5,45.7,44.4,46,44.4,46.2z"/>
	<path class="st0" d="M64,40.9c0.8-1.6,1.3-3.1,1.7-4.5c-1-0.5-1.8-1.2-2.4-2c-0.6-0.8-0.9-1.7-0.9-2.6c0-0.7,0.2-1.3,0.6-1.8
		c0.4-0.4,1-0.7,1.7-0.7c1.6,0,2.4,1.1,2.4,3.3c0,1.4-0.3,3.1-1,4.9c-0.7,1.9-1.5,3.7-2.6,5.6c-1.1,1.9-2.2,3.6-3.5,5.1
		c-1.2,1.5-2.6,2.7-4,3.9c-1.5,1.1-3,1.9-4.5,2.5c-0.9,0.4-1.8,0.5-2.6,0.5c-0.8,0-1.4-0.2-1.8-0.5c-0.4-0.4-0.7-0.8-0.7-1.5
		s0.2-1.2,0.7-1.6c0.5-0.4,1.1-0.6,1.8-0.6c1.4,0,2.7,0.8,3.8,2.5c1.7-0.8,3.2-1.9,4.7-3.3l-2.8-17.1c-0.1-0.7-0.3-1.1-0.4-1.3
		c-0.1-0.2-0.3-0.3-0.5-0.3c-0.3,0-0.5,0.2-0.8,0.5c-0.2,0.4-0.6,1.1-0.9,2.1l-0.6,1.7h-0.7l0.9-2.6c0.5-1.4,1.1-2.3,1.8-2.8
		c0.7-0.5,1.6-0.8,2.6-0.8c1,0,1.8,0.3,2.4,0.8c0.6,0.6,1,1.6,1.2,3l1.7,12.3C62.4,44,63.3,42.5,64,40.9z"/>
	<path class="st0" d="M87.8,23.1c0.8,0,1.7,0,2.7,0c1,0,1.8,0,2.6,0c2.7,0,4.7,0.4,6,1.2c1.3,0.8,1.9,2,1.9,3.5
		c0,1.2-0.4,2.4-1.2,3.4c-0.8,1-1.9,1.9-3.4,2.6c-1.5,0.7-3.1,1.1-5,1.3c1.7,0.1,3.2,0.4,4.4,0.9c1.2,0.5,2.1,1.2,2.7,2
		c0.6,0.8,0.9,1.7,0.9,2.7c0,1.6-0.5,3-1.5,4.2c-1,1.2-2.4,2-4.2,2.6c-1.8,0.6-3.8,0.9-6.1,0.9c-0.4,0-1.3,0-2.6-0.1
		c-1.3,0-2.5-0.1-3.7-0.1c-2.4,0-4.2,0-5.5,0.1l0.1-0.7c0.9,0,1.5-0.1,1.9-0.3c0.4-0.2,0.8-0.4,1-0.8c0.3-0.4,0.5-1.1,0.7-2
		l4.7-17.8c0.2-0.8,0.3-1.4,0.3-1.7c0-0.5-0.2-0.8-0.5-1c-0.3-0.2-1-0.3-1.9-0.3l0.2-0.7C83.7,23.1,85.5,23.1,87.8,23.1z M85,46.2
		c0,0.4,0.1,0.8,0.4,1c0.3,0.2,0.7,0.3,1.3,0.3c1.4,0,2.6-0.3,3.6-1c1-0.7,1.8-1.6,2.3-2.7c0.5-1.1,0.8-2.4,0.8-3.8
		c0-1.4-0.3-2.5-1-3.3c-0.7-0.8-1.7-1.2-3.1-1.2h-1.6l-2.4,9.1C85.1,45.3,85,45.9,85,46.2z M92.4,33.8c0.9-0.7,1.7-1.7,2.2-2.8
		c0.5-1.2,0.7-2.4,0.7-3.8c0-1.1-0.2-2-0.6-2.6c-0.4-0.6-1.1-0.9-2.1-0.9c-0.5,0-0.9,0.1-1.2,0.2c-0.3,0.1-0.5,0.4-0.7,0.7
		c-0.2,0.4-0.4,0.9-0.6,1.6l-2.3,8.6h1.2C90.4,34.9,91.5,34.5,92.4,33.8z"/>
	<path class="st0" d="M120.2,42.6l-0.9,2.6c-0.5,1.3-1.1,2.3-2,2.8s-1.8,0.8-2.7,0.8c-1.2,0-2.1-0.4-2.6-1.1
		c-0.3-0.5-0.5-1.1-0.5-1.8c0-0.6,0.1-1.3,0.3-2.1c-1.5,3.4-3.5,5.1-6,5.1c-1.3,0-2.3-0.4-3-1.2c-0.7-0.8-1-1.9-1-3.2
		c0-2.1,0.6-4.4,1.7-6.7c1.1-2.4,2.6-4.4,4.3-6c1.7-1.6,3.4-2.4,5.1-2.4c0.6,0,1.2,0.2,1.6,0.6c0.4,0.4,0.6,1,0.7,1.7l0.5-1.8
		c1.9,0,3.6-0.2,5.2-0.5l-4.7,16c-0.1,0.4-0.2,0.7-0.2,1c0,0.5,0.2,0.8,0.7,0.8c0.8,0,1.6-0.9,2.2-2.8l0.6-1.7H120.2z M114.8,32.5
		c0-0.6-0.1-1-0.3-1.3c-0.2-0.3-0.5-0.5-0.9-0.5c-0.8,0-1.7,0.7-2.8,2.2c-1,1.5-1.9,3.3-2.6,5.5c-0.7,2.2-1.1,4.3-1.1,6.4
		c0,0.8,0.1,1.4,0.2,1.7c0.2,0.3,0.4,0.5,0.8,0.5c0.5,0,1.1-0.4,1.7-1.1c0.6-0.7,1.3-1.8,1.9-3.2c0.6-1.4,1.2-3,1.7-4.9l-0.2,0.9
		l1.6-5.6C114.8,33,114.8,32.8,114.8,32.5z"/>
	<path class="st0" d="M133.1,30.6c0.9-0.8,1.9-1.2,3-1.2c1.4,0,2.5,0.5,3.3,1.4c0.8,0.9,1.1,2.3,1.1,4.1c0,1.9-0.5,4-1.4,6.2
		c-0.9,2.2-2.2,4-3.9,5.5c-1.7,1.5-3.6,2.3-5.8,2.3c-0.7,0-1.3-0.1-1.8-0.4c-0.5-0.3-0.9-0.6-1.2-1.1c-1.2,0.1-2.7,0.6-4.7,1.6
		l-0.5-0.3c0.3-0.7,0.6-1.4,0.8-2.1l6.5-22.1c0.1-0.4,0.2-0.7,0.2-1c0-0.5-0.2-0.8-0.6-1c-0.4-0.2-1-0.3-1.9-0.3l0.2-0.8
		c1.6,0,3.1-0.1,4.4-0.4c1.3-0.2,2.6-0.6,3.8-1.1l-4.2,14.5C131.3,32.7,132.2,31.4,133.1,30.6z M128.4,47.8c1.1,0,2.2-0.8,3.3-2.3
		c1.1-1.5,1.9-3.4,2.6-5.6c0.7-2.2,1-4.3,1-6.2c0-0.9-0.1-1.5-0.3-1.9c-0.2-0.4-0.5-0.6-0.9-0.6c-0.7,0-1.4,0.6-2.2,1.8
		c-0.8,1.2-1.6,2.7-2.4,4.6l-2.7,9.4C127.2,47.6,127.8,47.8,128.4,47.8z"/>
	<path class="st0" d="M147,31.8c0-0.5-0.2-0.7-0.6-0.7c-0.4,0-0.8,0.2-1.2,0.7c-0.4,0.4-0.7,1.2-1.1,2.2l-0.7,1.8h-0.7l1-2.7
		c0.9-2.4,2.5-3.7,5-3.7c1.1,0,1.9,0.3,2.4,0.8c0.5,0.5,0.8,1.2,0.8,2.1c0,0.7-0.1,1.4-0.4,2.1l-3.8,11c-0.1,0.4-0.2,0.8-0.2,1
		c0,0.5,0.2,0.8,0.7,0.8c0.4,0,0.7-0.2,1.1-0.6c0.4-0.4,0.8-1.1,1.2-2.2l0.6-1.7h0.7l-0.9,2.6c-0.8,2.5-2.4,3.7-4.8,3.7
		c-2.2,0-3.3-1-3.3-3c0-0.8,0.2-1.7,0.5-2.7l3.5-10.3C146.9,32.5,147,32.1,147,31.8z M148.6,22.3c0.3-0.5,0.8-0.9,1.3-1.2
		c0.6-0.3,1.2-0.4,1.9-0.4c0.9,0,1.5,0.2,2,0.6c0.5,0.4,0.7,0.9,0.7,1.6c0,0.6-0.2,1.2-0.5,1.7c-0.3,0.5-0.8,0.9-1.3,1.2
		s-1.2,0.4-1.9,0.4c-0.8,0-1.5-0.2-1.9-0.6c-0.5-0.4-0.7-0.9-0.7-1.5C148.1,23.4,148.3,22.8,148.6,22.3z"/>
	<path class="st0" d="M171.9,42.6l-0.9,2.6c-0.5,1.3-1.1,2.3-2,2.8c-0.9,0.6-1.8,0.8-2.7,0.8c-1.2,0-2.1-0.4-2.6-1.1
		c-0.3-0.5-0.5-1.1-0.5-1.8c0-0.6,0.1-1.3,0.3-2.1c-1.5,3.4-3.5,5.1-6,5.1c-1.3,0-2.3-0.4-3-1.2c-0.7-0.8-1-1.9-1-3.2
		c0-2.1,0.6-4.4,1.7-6.7c1.1-2.4,2.6-4.4,4.3-6c1.7-1.6,3.4-2.4,5.1-2.4c0.6,0,1.2,0.2,1.6,0.6c0.4,0.4,0.6,1,0.7,1.7l0.5-1.8
		c1.9,0,3.6-0.2,5.2-0.5l-4.7,16c-0.1,0.4-0.2,0.7-0.2,1c0,0.5,0.2,0.8,0.7,0.8c0.8,0,1.6-0.9,2.2-2.8l0.6-1.7H171.9z M166.5,32.5
		c0-0.6-0.1-1-0.3-1.3c-0.2-0.3-0.5-0.5-0.9-0.5c-0.8,0-1.7,0.7-2.8,2.2c-1,1.5-1.9,3.3-2.6,5.5c-0.7,2.2-1.1,4.3-1.1,6.4
		c0,0.8,0.1,1.4,0.2,1.7c0.2,0.3,0.4,0.5,0.8,0.5c0.5,0,1.1-0.4,1.7-1.1c0.6-0.7,1.3-1.8,1.9-3.2c0.6-1.4,1.2-3,1.7-4.9l-0.2,0.9
		l1.6-5.6C166.5,33,166.5,32.8,166.5,32.5z"/>
	<path class="st0" d="M184.1,36.3c0.6-0.7,1.2-1.8,1.7-3.3c0.6-1.4,1.1-2.4,1.7-2.8c0.7-0.5,1.4-0.8,2.2-0.8c1.1,0,1.9,0.3,2.5,0.9
		c0.6,0.6,0.9,1.4,0.9,2.3c0,0.6-0.1,1.1-0.4,1.6c-0.3,0.5-0.6,0.9-1.1,1.1c-0.5,0.3-1,0.4-1.6,0.4c-0.7,0-1.3-0.2-1.7-0.6
		c-0.4-0.4-0.6-0.9-0.6-1.5c0-0.7,0.2-1.3,0.7-1.9c0.4-0.6,1-1,1.7-1.4c0-0.1-0.1-0.2-0.2-0.2c-0.1-0.1-0.2-0.1-0.3-0.1
		c-0.5,0-1,0.2-1.5,0.5c-0.5,0.4-1,1.3-1.5,2.6c-0.5,1.3-1,2.4-1.6,3.1c-0.5,0.8-1.3,1.3-2.4,1.6c1.8,0,3.2,0.4,4.4,1
		c1.1,0.6,1.7,1.6,1.7,3c0,0.4,0,0.7-0.1,1.1l-0.5,2.6c-0.1,0.3-0.1,0.6-0.1,0.8c0,0.3,0.1,0.4,0.2,0.5c0.1,0.1,0.3,0.2,0.5,0.2
		c0.8,0,1.5-0.9,2.2-2.8l0.6-1.7h0.7l-0.9,2.6c-0.9,2.5-2.6,3.7-5.2,3.7c-1,0-1.7-0.2-2.2-0.7c-0.5-0.5-0.8-1.2-0.8-2.1
		c0-0.4,0-0.9,0.1-1.3l0.6-2.8c0.1-0.6,0.2-1,0.2-1.5c0-0.7-0.2-1.2-0.6-1.6c-0.4-0.4-1.1-0.6-2.1-0.8l-3,10.2h-5.1l7.1-23.9
		c0.1-0.4,0.2-0.8,0.2-1c0-0.5-0.2-0.8-0.6-1c-0.4-0.2-1-0.3-1.9-0.3l0.2-0.8c3.1,0,5.9-0.5,8.3-1.5l-5.2,17.8
		C182.5,37.5,183.5,37,184.1,36.3z"/>
</g>
</svg>
